inDegrees=yes
name=ik_Xsens
DataType=double
version=3
OpenSimVersion=4.4-2022-07-23-0e9fedc
endheader
time	pelvis_tilt	pelvis_list	pelvis_rotation	pelvis_tx	pelvis_ty	pelvis_tz	hip_flexion_r	hip_adduction_r	hip_rotation_r	knee_angle_r	knee_angle_r_beta	ankle_angle_r	subtalar_angle_r	mtp_angle_r	hip_flexion_l	hip_adduction_l	hip_rotation_l	knee_angle_l	knee_angle_l_beta	ankle_angle_l	subtalar_angle_l	mtp_angle_l	lumbar_extension	lumbar_bending	lumbar_rotation	arm_flex_r	arm_add_r	arm_rot_r	elbow_flex_r	pro_sup_r	wrist_flex_r	wrist_dev_r	arm_flex_l	arm_add_l	arm_rot_l	elbow_flex_l	pro_sup_l	wrist_flex_l	wrist_dev_l
12.85	0	0	0	0	0.93	0	0	0	0	0	0	0	0	0	0	0	0	0	0	0	0	0	0	0	0	82.30497401862679	-9.860036434126037	-7.614672659537155	-165.1939920194386	-53.23943761321507	0	0	-10.00755072495104	20.04797649131476	-24.98201866884776	-189.2375840855297	-302.9817979287993	0	0
12.86666666666667	0	0	0	0	0.93	0	0	0	0	0	0	0	0	0	0	0	0	0	0	0	0	0	0	0	0	82.23513779656295	-9.972924075023089	-7.657433048107963	-165.0955719874654	-53.31097123364287	0	0	-10.13364485844953	20.13645891948529	-24.54626802229302	-189.0000143471719	-302.6534641647141	0	0
12.88333333333333	0	0	0	0	0.93	0	0	0	0	0	0	0	0	0	0	0	0	0	0	0	0	0	0	0	0	82.14446860081745	-10.07682778854959	-7.658176593131419	-164.9566325587313	-53.35694744733572	0	0	-10.24119585580517	20.23162081928802	-24.17833926539416	-188.8931566506267	-302.2209845270359	0	0
12.9	0	0	0	0	0.93	0	0	0	0	0	0	0	0	0	0	0	0	0	0	0	0	0	0	0	0	82.08449294071087	-10.18709925598131	-7.657551366095804	-164.8661351085189	-53.30098170499147	0	0	-10.33890178174969	20.26540091785016	-23.83374495428824	-188.8793667112742	-301.8949094978244	0	0
12.91666666666667	0	0	0	0	0.93	0	0	0	0	0	0	0	0	0	0	0	0	0	0	0	0	0	0	0	0	82.08785486851549	-10.30548722790511	-7.636926166801325	-164.8317555714673	-53.34359725437695	0	0	-10.34959201032545	20.44344676741327	-23.51968276180395	-188.8161694344967	-301.4839781795101	0	0
12.93333333333333	0	0	0	0	0.93	0	2.297072062796848e-49	0	0	1.213285324654967e-20	0	0	0	0	2.297072062796848e-49	0	0	1.213285324654967e-20	0	0	0	0	0	0	0	82.05983379090134	-10.38119864389625	-7.629065202961229	-164.8198677435508	-53.40496739082867	0	0	-10.38553653652114	20.55089986005558	-23.26316531584461	-188.6843895819623	-301.1362811119512	0	0
12.95	0	0	0	0	0.93	0	0	0	0	0	0	0	0	0	0	0	0	0	0	0	0	0	0	0	0	81.95701433409724	-10.51914451929949	-7.64697059463647	-164.707982462501	-53.43008872487228	0	0	-10.40994490028606	20.60392840957342	-23.15388101081169	-188.6329815078102	-300.3938876355693	0	0
12.96666666666667	5.272167555676776e-25	-5.96859069033634e-25	3.542012214193411e-26	-2.141497920467064e-25	0.93	3.253719947634795e-25	-8.620910738379216e-35	-1.121288291276673e-23	0	5.314519656808218e-15	7.80231446445202e-17	-2.078633960300714e-16	2.898205862562334e-19	-1.875431201537575e-19	5.640590887403951e-25	2.830952103198844e-25	-2.046999373992362e-16	5.30726201627826e-15	-9.458612116431189e-17	-3.295300020249707e-16	2.375985745258702e-20	-3.351535594178541e-20	-2.857998335419307e-14	5.813984325140425e-14	-5.016045924095761e-16	81.86739694350429	-10.69037052465166	-7.701843908189566	-164.6448428157065	-53.46997527641523	1.698375983907265e-21	-2.824549789476649e-19	-10.41610593586569	20.57650821023876	-23.11457661124395	-188.5122509144931	-299.7453070694527	-1.296604491104447e-23	-2.239692135007758e-18
12.98333333333333	0	0	0	0	0.93	0	0	0	0	0	0	0	0	0	0	0	0	0	0	0	0	0	0	0	0	81.73822250700275	-10.8039386285759	-7.852317393944382	-164.545940088237	-53.56115997338797	0	0	-10.34081493847693	20.49542668851996	-23.1805918855706	-188.3624263804455	-299.3375520175163	0	0
13	0	0	0	0	0.93	0	0	0	0	0	-1.489735414903511e-38	0	0	0	0	0	0	0	-1.489735414903511e-38	0	0	0	0	0	0	81.68988911642768	-10.83612241901252	-8.009954250465686	-164.523136372135	-53.67832164403305	0	0	-10.28142261565641	20.40123617350935	-23.19942845468419	-188.3747618627304	-299.2116208672338	0	0
13.01666666666667	0	0	0	0	0.93	0	0	0	0	0	0	0	0	0	0	0	0	0	0	0	0	0	0	0	0	81.7169855582692	-10.9229994961306	-8.070516497107782	-164.4953434518656	-53.89346804721345	0	0	-10.2457366622813	20.27633310189441	-23.14832132453905	-188.2914305178795	-299.0095551367315	0	0
13.03333333333333	0	0	0	0	0.93	0	4.594144125593695e-49	0	0	2.426570649309934e-20	0	0	0	0	4.594144125593695e-49	0	0	2.426570649309934e-20	0	0	0	0	0	0	0	81.73911640620112	-10.95635224202647	-8.048273535857934	-164.4645651536611	-53.90960834277184	0	0	-10.17908909271121	20.25696407849068	-22.9871442793117	-188.2460458460588	-298.7581046923715	0	0
13.05	-1.885780817734886e-26	6.227074368141382e-17	4.443719562611158e-26	-4.031534245888031e-26	0.93	-3.264033714124422e-27	4.826438049532481e-34	4.572433949697779e-25	0	0	-6.416367010351503e-17	-4.109052442800294e-21	4.055447015069156e-19	1.296373977316308e-17	-1.187814141486896e-24	1.234191133583214e-30	-3.033805907866268e-23	0	-6.416847433450066e-17	3.726202455884076e-20	2.449739164064156e-25	-2.29360958458023e-18	-1.885780817734886e-26	1.91079826471484e-19	1.601318718223205e-24	81.77535997913542	-11.15554934133928	-7.914115143762507	-164.2876030612596	-53.6692542612701	-1.494438241527782e-20	1.097137423886505e-17	-10.11339955442316	20.29907492941391	-22.67555433864982	-188.1472120176709	-298.337112330641	-2.994952462366432e-23	-8.241418433910829e-19
13.06666666666667	0	0	0	0	0.93	0	0	0	0	0	1.924245774459753e-41	0	0	0	0	0	0	1.934426565515689e-39	1.924245774459753e-41	0	0	0	0	0	0	81.80350510256984	-11.25379453519422	-7.75403128420233	-164.2003916236058	-53.53670596663523	0	0	-10.10174631692408	20.2921503907302	-22.33697864918324	-188.1339452380224	-297.8885632308833	0	0
13.08333333333333	0	0	0	0	0.93	0	0	0	0	0	0	0	0	0	0	0	0	0	0	0	0	0	0	0	0	81.86575531224233	-11.35786617362107	-7.632996889392771	-164.1274356553799	-53.44104453746976	0	0	-10.07863268304994	20.2453961636711	-22.04638972722679	-188.2232295989579	-297.5941542751308	0	0
13.1	9.407425736138062e-27	1.21127663541966e-20	6.940464195061318e-28	-6.977758527123894e-25	0.93	-1.546794105733454e-24	-1.246618430737869e-31	6.272323281281043e-24	0	0	-1.969589227524271e-17	2.055984841581626e-22	1.24181373695449e-22	-5.337138209688379e-19	5.013793028900577e-23	2.655542714446909e-32	-4.828270544280963e-23	0	-1.970942057321531e-17	-2.653110091406982e-24	1.272600640358302e-16	9.989843610042215e-18	7.22079414274192e-27	-3.526633498547715e-23	-8.690072246508456e-24	81.97719112571133	-11.60272379202598	-7.558201676043923	-164.0336254127682	-53.37066187134601	-2.388020246514591e-21	-3.244432307293566e-21	-10.0448349589592	20.2026483005961	-21.78580756449147	-188.3082862665564	-297.3182848423945	-1.103665390830595e-21	-4.126679050619378e-22
13.11666666666667	0	0	0	0	0.93	0	0	0	0	0	0	0	0	0	0	0	0	0	4.70197740328915e-38	0	0	0	0	0	0	82.03523649353204	-11.69035645206605	-7.563479582366024	-163.9871856562569	-53.34382397037997	0	0	-10.00985214394564	20.21511980945057	-21.63118150582032	-188.3866144132515	-297.1423413130225	0	0
13.13333333333333	0	0	0	0	0.93	0	0	0	0	0	-5.877471754111438e-39	0	0	0	0	0	0	0	-5.877471754111438e-39	0	0	0	0	0	0	82.07816929445956	-11.77240504846249	-7.592141395194502	-163.9352120329462	-53.38506772219321	0	0	-9.951314321741675	20.27180874660043	-21.49271622946535	-188.4649168899526	-297.0110657312161	0	0
13.15	0	0	0	0	0.93	0	0	0	0	0	0	0	0	0	0	0	0	0	0	0	0	0	0	0	0	82.11443441076142	-11.96077233042674	-7.611358327402867	-163.7653620627098	-53.42659483712013	0	0	-9.875759642070765	20.37842418318799	-21.34122006137532	-188.5157781612355	-296.8425815962039	0	0
13.16666666666667	0	0	0	0	0.93	0	0	0	0	0	-4.114230227878006e-38	0	0	0	0	0	0	0	-4.114230227878006e-38	0	0	0	0	0	0	82.1640545602986	-12.0398111884619	-7.636199728892701	-163.7242564831913	-53.3097950151215	0	0	-9.847143994026828	20.45392695303223	-21.23180291630364	-188.5631025346104	-296.7050595060288	0	0
13.18333333333333	0	0	0	0	0.93	0	0	0	0	0	0	0	0	0	0	0	0	0	0	0	0	0	0	0	0	82.24124000741728	-12.13176582887349	-7.531560586609291	-163.7143306705369	-53.03195965139107	0	0	-9.817240602961647	20.47586990666267	-21.1039754787364	-188.5605156320482	-296.6349058562403	0	0
